# xmcd CD database file generated by Grip 2.91
# 
# Track frame offsets:
#       150
#       13710
#       36012
#       54307
#       72150
#       89230
#       98875
#       113560
#       146997
#       168465
#       182835
#       205437
#       214212
#       221747
#       235500
#       251182
#       259975
#       277370
#       290150
#       310355
#       321992
# 
# Disc length: 4463 seconds
# 
# Revision: 3
# Processed by: cddbd v1.4b41PL1 Copyright (c) Steve Scherf et al.
# Submitted via: Grip 2.91
# 
DISCID=5c116d15
DTITLE=Pavarotti Domingo - Castle Masters Collection
DYEAR=1900
DGENRE=
TTITLE0=Nessum Dorma Turondot
TTITLE1=Che Gelida Manina La Boheme
TTITLE2=O Soave Fanciulla La Boheme
TTITLE3=Non Ho Colpa Idomeneo
TTITLE4=Il Padre Adorato Idomeneo
TTITLE5=E Serbata a Questo
TTITLE6=La Mia Canzon d'Armor
TTITLE7=Tombe Degli Avi Mie Lucia di Lamamoor
TTITLE8=Te Chu a dio Spargesti
TTITLE9=Fra Poco a me Ricovero
TTITLE10=Una Furtiva Lacrima
TTITLE11=Di Quella Pira Il Travatore
TTITLE12=Lunga Da Lei La Traviata
TTITLE13=Brindisi - Libiamo
TTITLE14=Uni de Felice Etera
TTITLE15=De Miei Bollenti Spirito
TTITLE16=Ricitar Vesti la Giubba I Pagliacci
TTITLE17=Dammi i Colori
TTITLE18=Che Gelida Menina
TTITLE19=Hai Ben Ragione La Boheme
TTITLE20=E Lucean le Stelle tosca
EXTD=
EXTT0=
EXTT1=
EXTT2=
EXTT3=
EXTT4=
EXTT5=
EXTT6=
EXTT7=
EXTT8=
EXTT9=
EXTT10=
EXTT11=
EXTT12=
EXTT13=
EXTT14=
EXTT15=
EXTT16=
EXTT17=
EXTT18=
EXTT19=
EXTT20=
PLAYORDER=
